<?xml version="1.0" encoding="UTF-8" standalone="no"?>
<svg
   width="1522.2263"
   height="315.50314"
   viewBox="0 0 1522.2263 315.50314"
   version="1.1"
   xml:space="preserve"
   style="clip-rule:evenodd;fill-rule:evenodd;stroke-linejoin:round;stroke-miterlimit:2"
   id="svg190"
   sodipodi:docname="logomark.svg"
   inkscape:version="1.1.2 (0a00cf5339, 2022-02-04, custom)"
   xmlns:inkscape="http://www.inkscape.org/namespaces/inkscape"
   xmlns:sodipodi="http://sodipodi.sourceforge.net/DTD/sodipodi-0.dtd"
   xmlns="http://www.w3.org/2000/svg"
   xmlns:svg="http://www.w3.org/2000/svg"><defs
   id="defs194" /><sodipodi:namedview
   id="namedview192"
   pagecolor="#ffffff"
   bordercolor="#666666"
   borderopacity="1.0"
   inkscape:pageshadow="2"
   inkscape:pageopacity="0.0"
   inkscape:pagecheckerboard="0"
   showgrid="false"
   fit-margin-top="0"
   fit-margin-left="0"
   fit-margin-right="0"
   fit-margin-bottom="0"
   inkscape:zoom="0.5653951"
   inkscape:cx="756.10843"
   inkscape:cy="252.92048"
   inkscape:window-width="1920"
   inkscape:window-height="1011"
   inkscape:window-x="1920"
   inkscape:window-y="32"
   inkscape:window-maximized="1"
   inkscape:current-layer="svg190" />
    
    
<g
   id="g1166"
   transform="translate(118.27212,346.1017)"><path
     style="fill:#53fe00;fill-opacity:1;stroke-width:4.64888"
     d="m 284.43083,-129.47544 c -25.77752,-5.85415 -43.45872,-23.4277 -48.76612,-48.4691 -5.30029,-25.00835 0.49859,-49.04779 15.71197,-65.13363 7.78029,-8.22653 14.42024,-12.40369 26.43403,-16.62963 7.40261,-2.60388 11.35626,-3.04042 27.96728,-3.08806 16.28063,-0.0465 21.03705,0.42909 30.01948,3.00104 16.53521,4.73512 16.67742,4.89026 16.67742,18.19615 0,6.17717 -0.51012,11.54645 -1.13354,11.93178 -0.6235,0.3854 -5.42534,-1.10261 -10.67082,-3.30651 -19.27153,-8.09701 -41.06736,-8.36139 -54.21293,-0.65758 -12.17376,7.13431 -19.00608,23.45543 -17.62923,42.11271 1.38853,18.8152 7.33362,29.07427 20.63292,35.60504 6.76873,3.3238 9.11112,3.75378 20.44821,3.75378 17.02785,0 17.42649,-0.35796 16.93107,-15.2137 l -0.38261,-11.47026 -9.33939,-0.66707 -9.33938,-0.66711 v -10.67355 -10.67362 h 24.68271 24.68266 l 0.35795,31.05699 0.35797,31.05691 -6.36208,2.75047 c -18.29789,7.91045 -49.26556,11.22803 -67.06814,7.18495 z m 135.06868,0.67613 c -16.60801,-3.54147 -29.34382,-13.23868 -35.93678,-27.36268 -3.38345,-7.24832 -3.73603,-9.3928 -3.72924,-22.68142 0.004,-13.36572 0.35331,-15.42559 3.8761,-23.07024 7.82942,-16.98837 23.1217,-26.51086 44.81461,-27.90595 25.52907,-1.6417 42.6651,8.0866 52.19034,29.62908 2.24119,5.06872 2.9772,9.39484 3.06432,18.01162 l 0.11437,11.34074 -36.22231,0.35471 c -28.64518,0.28079 -36.36466,0.72565 -36.90277,2.12802 -1.05724,2.75518 3.67314,12.08418 7.75592,15.29568 8.94079,7.03283 25.90959,7.15021 45.46095,0.31427 6.54661,-2.28889 12.9537,-4.51435 14.23781,-4.94549 2.10195,-0.70571 2.33486,0.34635 2.33486,10.55055 0,11.11795 -0.0702,11.36263 -3.66904,12.80893 -12.66844,5.09109 -44.89094,8.1971 -57.38937,5.5319 z m 33.77075,-61.48732 c 1.49384,-2.41706 -3.38601,-13.04854 -7.25319,-15.80226 -11.11586,-7.91516 -28.36318,-3.17534 -33.49076,9.20372 -3.1638,7.63807 -2.18102,8.03528 19.87985,8.03528 12.82859,0 20.29383,-0.51403 20.8641,-1.43674 z m 130.58154,60.92713 c -21.95808,-6.87486 -29.41179,-36.06137 -13.31455,-52.13572 7.94503,-7.93374 16.04711,-10.21221 39.21195,-11.02716 14.62001,-0.51459 19.28739,-1.10899 19.83136,-2.52662 1.20862,-3.14971 -2.16239,-9.17471 -6.65353,-11.89185 -6.27324,-3.79526 -30.1239,-3.50345 -42.30426,0.51736 -4.76976,1.57464 -9.12255,2.87066 -9.67293,2.88009 -0.55048,0.009 -1.00063,-4.76479 -1.00063,-10.60941 0,-8.82317 0.40306,-10.84232 2.37474,-11.89757 4.27391,-2.2873 29.96319,-4.5273 43.62516,-3.8039 22.47438,1.18998 33.51791,6.86474 40.32127,20.71901 l 3.73719,7.61043 v 35.35621 35.35627 H 645.33141 630.6552 l -0.41375,-5.00329 c -0.2278,-2.75176 -1.05554,-5.00322 -1.83956,-5.00322 -0.78405,0 -3.71396,2.06755 -6.5109,4.59441 -8.70934,7.86832 -25.2814,10.85909 -38.03887,6.86482 z m 34.17939,-21.13216 c 6.83545,-3.44692 12.29673,-12.346 11.6676,-19.01236 -0.37239,-3.94858 -0.49469,-4.00822 -9.05009,-4.42286 -13.261,-0.64266 -19.88203,0.75126 -24.23246,5.10164 -8.40624,8.4063 -1.43133,21.20737 11.60846,21.30515 2.22943,0.0186 6.73228,-1.32047 10.00649,-2.97157 z m 188.30628,21.66938 c -24.30586,-5.12897 -38.92698,-23.91707 -38.92698,-50.02113 0,-22.74745 11.00072,-39.91594 30.47173,-47.55661 6.28338,-2.46562 10.24414,-2.97096 23.56335,-3.0063 17.94776,-0.0497 26.52686,2.32808 36.23815,10.03505 19.49599,15.47209 23.81968,49.74722 9.00889,71.41627 -8.89043,13.00736 -22.01671,19.24621 -41.91152,19.92049 -6.97124,0.23615 -15.27084,-0.11812 -18.44362,-0.78777 z m 25.13537,-23.80336 c 2.65801,-1.41084 6.07735,-4.98183 7.98441,-8.33876 2.87586,-5.06216 3.33549,-7.5258 3.33549,-17.87901 0,-10.35315 -0.45978,-12.81678 -3.33549,-17.87896 -4.51806,-7.95276 -10.624,-11.17987 -19.5605,-10.33804 -14.15192,1.33311 -19.77924,9.36103 -19.77924,28.217 0,13.18666 2.78225,20.94325 8.9655,24.99464 6.43797,4.21836 15.78483,4.72894 22.38983,1.22313 z m 256.70586,23.26614 c -21.958,-6.87486 -29.4116,-36.06137 -13.3149,-52.13572 7.9455,-7.93374 16.0476,-10.21221 39.212,-11.02716 14.6203,-0.51459 19.2878,-1.10899 19.8317,-2.52662 1.2087,-3.14971 -2.1627,-9.17471 -6.6534,-11.89185 -6.2732,-3.79526 -30.1239,-3.50345 -42.3045,0.51736 -4.7697,1.57464 -9.1225,2.87066 -9.6729,2.88009 -0.5504,0.009 -1.0005,-4.76479 -1.0005,-10.60941 0,-8.82317 0.4045,-10.84232 2.3747,-11.89757 4.2737,-2.2873 29.9629,-4.5273 43.6251,-3.8039 22.4742,1.18998 33.5176,6.86474 40.3212,20.71901 l 3.7372,7.61043 v 35.35621 35.35627 h -14.676 -14.676 l -0.4138,-5.00329 c -0.2279,-2.75176 -1.0558,-5.00322 -1.84,-5.00322 -0.7839,0 -3.714,2.06755 -6.5109,4.59441 -8.7091,7.86832 -25.2815,10.85909 -38.0385,6.86482 z m 34.1796,-21.13216 c 6.8352,-3.44692 12.2963,-12.346 11.6673,-19.01236 -0.372,-3.94858 -0.4946,-4.00822 -9.05,-4.42286 -13.2609,-0.64266 -19.8818,0.75126 -24.2323,5.10164 -8.4066,8.4063 -1.4319,21.20737 11.6083,21.30515 2.2296,0.0186 6.732,-1.32047 10.0067,-2.97157 z m 121.2397,20.94221 c -3.3686,-1.03777 -8.9217,-4.34862 -12.3401,-7.35746 -6.5214,-5.74027 -7.0774,-5.59163 -7.8278,2.09208 l -0.3905,4.0026 h -14.676 -14.6765 v -67.377 -67.37699 h 14.6765 14.676 l 0.344,23.34842 c 0.1907,12.84166 0.6402,24.14946 1.0019,25.12852 0.4556,1.23294 2.5625,0.10314 6.8552,-3.67522 10.1691,-8.95109 23.5754,-11.55336 37.7839,-7.33389 5.2732,1.56602 8.8821,3.89261 13.9689,9.00578 10.3312,10.38453 15.4278,23.68174 15.4278,40.2492 0,16.56752 -5.0966,29.86469 -15.4278,40.24927 -10.3345,10.38794 -24.4871,13.63719 -39.3955,9.04469 z m 13.1377,-24.16705 c 6.5048,-4.85655 8.998,-11.81882 8.998,-25.12691 0,-19.62127 -6.1979,-28.01813 -20.6802,-28.01813 -12.9634,0 -19.7066,7.69972 -21.0148,23.99452 -1.192,14.84873 3.6024,26.97787 12.2043,30.87572 5.4666,2.47731 16.0581,1.58569 20.4927,-1.7252 z m 85.7143,25.62308 c -1.1009,-0.26267 -6.5042,-1.20141 -12.008,-2.08674 -5.5034,-0.88534 -10.7566,-2.21366 -11.6739,-2.952 -1.8159,-1.46147 -2.4402,-22.37589 -0.6672,-22.34571 0.5506,0.0101 5.762,1.53752 11.5814,3.39582 12.9049,4.12092 28.9979,5.60739 35.9318,3.31898 5.9821,-1.97423 9.4776,-6.74404 8.3209,-11.35332 -1.1302,-4.50226 -3.8222,-5.67527 -18.4146,-8.02342 -24.3002,-3.91032 -32.3898,-7.96167 -37.2464,-18.65356 -1.3659,-3.00601 -2.4626,-8.51053 -2.4789,-12.43939 -0.1022,-25.11697 21.1702,-34.82072 64.6795,-29.50179 16.9025,2.0663 16.6775,1.8694 16.6775,14.58189 0,7.621 -0.4714,10.62177 -1.6675,10.60939 -0.9178,-0.0101 -5.5704,-1.24049 -10.3402,-2.73554 -19.4141,-6.08539 -37.489,-4.50467 -39.4866,3.45334 -1.5011,5.98167 2.3447,8.28055 18.8299,11.2549 19.3128,3.48462 26.6352,6.12007 32.0502,11.535 10.3034,10.3031 9.7953,30.34645 -1.0525,41.55496 -6.8366,7.0636 -16.4659,9.93183 -35.0237,10.43242 -8.806,0.23755 -16.9109,0.2171 -18.0117,-0.0465 z m -834.57913,-3.67406 c -0.36074,-0.94224 -0.50023,-31.43242 -0.30915,-67.75597 l 0.34727,-66.04277 h 14.67621 14.67616 v 67.37699 67.377 l -14.36711,0.37935 c -10.74812,0.28358 -14.53237,-0.0553 -15.02338,-1.33423 z m 203.95732,0.36308 c -7.269,-1.76403 -13.00722,-5.99897 -16.46432,-12.15112 -3.17969,-5.65835 -3.36667,-7.21372 -4.00264,-33.28677 l -0.66707,-27.35108 -7.33807,-0.66711 -7.33813,-0.66707 v -10.6736 -10.67357 l 7.33813,-0.66711 7.33807,-0.66711 0.66707,-13.34193 0.66711,-13.34202 h 14.67617 14.6762 l 0.66707,13.34202 0.66707,13.34193 15.34333,0.66711 15.34327,0.66711 v 10.67357 10.6736 l -15.34327,0.66707 -15.34333,0.66711 -0.36493,22.16125 c -0.46648,28.33064 -0.51901,28.23807 16.58657,29.20537 l 11.79655,0.66711 v 10.67361 10.67357 l -17.34458,0.21571 c -9.53956,0.11812 -19.24165,-0.245 -21.56032,-0.80752 z m 249.65911,-0.39098 c -0.35797,-0.92707 -0.48952,-30.20404 -0.29753,-65.05994 l 0.34866,-63.3744 h 16.0103 16.01031 l 0.66711,52.03367 0.66711,52.03373 28.68544,0.66715 28.685,0.66706 v 12.00781 12.00779 l -45.0639,0.35146 c -35.33432,0.27521 -45.20392,-0.009 -45.71064,-1.33414 z"
     id="path3000"
     inkscape:connector-curvature="0"
     sodipodi:nodetypes="csssccscsssssscccccccccscccsccssccsssscsscccsssccsccsccscssccccccssccscsscscsscssccssscsssscsccsccscssccccccscccscsscsccccccccccccscsssccsssssscssccscsccsscscsssccccscccccccccsscccccccccccccccccccsscccccccscccccccccccc" /><g
     transform="matrix(2.4648683,0,0,2.4648683,-661.86109,-2403.0094)"
     id="layer1-3"
     inkscape:label="Layer 1"><path
       inkscape:connector-curvature="0"
       id="path3000-5"
       d="m 284.3563,834.4899 c -8.7192,0 -13.68088,0.82084 -21.42772,3.54224 -21.06868,7.40129 -36.31392,24.87017 -41.4572,47.51693 -1.24892,5.49921 -1.24892,20.24125 0,25.74045 3.6472,16.05916 11.997,29.09457 24.74632,38.61065 9.13596,6.81912 18.5564,10.48048 31.9394,12.43164 3.18472,0.46432 14.63444,-0.1588 18.86716,-1.02892 12.57104,-2.58444 23.6914,-8.5736 32.61324,-17.54264 19.32956,-19.43193 24.34836,-48.31805 12.65108,-72.78506 -7.46204,-15.60824 -20.93056,-27.71749 -36.90888,-33.17917 -7.22972,-2.47128 -12.55704,-3.30612 -21.0234,-3.30612 z m -1.14552,11.31837 c 5.01572,-0.0636 10.22444,0.44796 14.28516,1.51812 29.85632,7.86844 46.7206,39.05076 36.82464,68.09577 -5.72304,16.79728 -19.63416,29.66061 -36.74044,34.00573 -5.85428,1.487 -14.79008,2.10404 -19.97896,1.36628 -21.49512,-3.05608 -38.7404,-18.35665 -44.28728,-39.26849 -1.20352,-4.5372 -1.3982,-6.3908 -1.3982,-13.1064 0,-6.71124 0.198,-8.58264 1.3982,-13.10637 5.08504,-19.16868 19.68772,-33.44916 39.18304,-38.307 3.0244,-0.75364 6.81272,-1.14828 10.71384,-1.19764 z m 0.67384,19.53304 c -3.2726,0.0556 -6.51976,0.47136 -8.96192,1.23136 -9.06028,2.81964 -16.35244,8.9128 -20.11372,16.80044 -2.74296,5.75217 -3.33544,8.70861 -3.33544,16.73297 0,6.86984 -0.1204,7.29496 -2.98168,11.04848 -3.84084,5.0384 -3.68116,10.87696 0.3704,13.5618 3.39084,2.24692 6.33624,2.03824 11.01708,-0.7928 2.08612,-1.26172 4.19328,-2.294 4.68308,-2.294 0.48984,0 2.37808,1.3476 4.21144,2.9856 1.83332,1.63804 3.9158,3.11336 4.61572,3.28924 2.02692,0.5094 4.55092,-0.2248 7.71528,-2.24344 4.12368,-2.63084 5.26328,-2.48644 8.92824,1.09644 2.42536,2.37104 3.39572,2.96876 4.801,2.96876 1.43892,0 2.25804,-0.541 4.51464,-2.96876 3.40764,-3.66612 4.64568,-3.78916 10.29272,-0.9952 3.84208,1.90088 4.083,1.95012 6.45188,1.31568 5.13304,-1.37468 7.70908,-4.91556 6.56984,-9.05808 -0.3116,-1.1326 -1.66204,-3.62344 -2.99856,-5.53268 l -2.42576,-3.47476 0.0504,-8.40024 c 0.0524,-7.67368 -0.0588,-8.78208 -1.34768,-12.80277 -3.3234,-10.36848 -12.15208,-18.64892 -22.9606,-21.54032 -2.52608,-0.67572 -5.82408,-0.98324 -9.09668,-0.92772 z"
       style="fill:#53fe00;fill-opacity:1" /></g></g></svg>
