<?xml version="1.0" encoding="UTF-8" standalone="no"?>
<svg
   width="100%"
   height="100%"
   viewBox="0 0 38 48"
   version="1.1"
   xml:space="preserve"
   style="fill-rule:evenodd;clip-rule:evenodd;stroke-linejoin:round;stroke-miterlimit:2;"
   id="svg160"
   sodipodi:docname="sprite.svg"
   inkscape:version="1.1.2 (0a00cf5339, 2022-02-04, custom)"
   xmlns:inkscape="http://www.inkscape.org/namespaces/inkscape"
   xmlns:sodipodi="http://sodipodi.sourceforge.net/DTD/sodipodi-0.dtd"
   xmlns="http://www.w3.org/2000/svg"
   xmlns:svg="http://www.w3.org/2000/svg"><defs
   id="defs164" /><sodipodi:namedview
   id="namedview162"
   pagecolor="#ffffff"
   bordercolor="#666666"
   borderopacity="1.0"
   inkscape:pageshadow="2"
   inkscape:pageopacity="0.0"
   inkscape:pagecheckerboard="0"
   showgrid="false"
   inkscape:zoom="12.271249"
   inkscape:cx="19.028218"
   inkscape:cy="25.180811"
   inkscape:window-width="1920"
   inkscape:window-height="1011"
   inkscape:window-x="1920"
   inkscape:window-y="32"
   inkscape:window-maximized="1"
   inkscape:current-layer="svg160" />
    
<g
   transform="matrix(0.24005276,0,0,0.24005276,-49.303337,-191.68498)"
   id="layer1-3"
   inkscape:label="Layer 1"
   style="clip-rule:evenodd;fill-rule:evenodd;stroke-linejoin:round;stroke-miterlimit:2"><path
     inkscape:connector-curvature="0"
     id="path3000-5"
     d="m 284.3563,834.4899 c -8.7192,0 -13.68088,0.82084 -21.42772,3.54224 -21.06868,7.40129 -36.31392,24.87017 -41.4572,47.51693 -1.24892,5.49921 -1.24892,20.24125 0,25.74045 3.6472,16.05916 11.997,29.09457 24.74632,38.61065 9.13596,6.81912 18.5564,10.48048 31.9394,12.43164 3.18472,0.46432 14.63444,-0.1588 18.86716,-1.02892 12.57104,-2.58444 23.6914,-8.5736 32.61324,-17.54264 19.32956,-19.43193 24.34836,-48.31805 12.65108,-72.78506 -7.46204,-15.60824 -20.93056,-27.71749 -36.90888,-33.17917 -7.22972,-2.47128 -12.55704,-3.30612 -21.0234,-3.30612 z m -1.14552,11.31837 c 5.01572,-0.0636 10.22444,0.44796 14.28516,1.51812 29.85632,7.86844 46.7206,39.05076 36.82464,68.09577 -5.72304,16.79728 -19.63416,29.66061 -36.74044,34.00573 -5.85428,1.487 -14.79008,2.10404 -19.97896,1.36628 -21.49512,-3.05608 -38.7404,-18.35665 -44.28728,-39.26849 -1.20352,-4.5372 -1.3982,-6.3908 -1.3982,-13.1064 0,-6.71124 0.198,-8.58264 1.3982,-13.10637 5.08504,-19.16868 19.68772,-33.44916 39.18304,-38.307 3.0244,-0.75364 6.81272,-1.14828 10.71384,-1.19764 z m 0.67384,19.53304 c -3.2726,0.0556 -6.51976,0.47136 -8.96192,1.23136 -9.06028,2.81964 -16.35244,8.9128 -20.11372,16.80044 -2.74296,5.75217 -3.33544,8.70861 -3.33544,16.73297 0,6.86984 -0.1204,7.29496 -2.98168,11.04848 -3.84084,5.0384 -3.68116,10.87696 0.3704,13.5618 3.39084,2.24692 6.33624,2.03824 11.01708,-0.7928 2.08612,-1.26172 4.19328,-2.294 4.68308,-2.294 0.48984,0 2.37808,1.3476 4.21144,2.9856 1.83332,1.63804 3.9158,3.11336 4.61572,3.28924 2.02692,0.5094 4.55092,-0.2248 7.71528,-2.24344 4.12368,-2.63084 5.26328,-2.48644 8.92824,1.09644 2.42536,2.37104 3.39572,2.96876 4.801,2.96876 1.43892,0 2.25804,-0.541 4.51464,-2.96876 3.40764,-3.66612 4.64568,-3.78916 10.29272,-0.9952 3.84208,1.90088 4.083,1.95012 6.45188,1.31568 5.13304,-1.37468 7.70908,-4.91556 6.56984,-9.05808 -0.3116,-1.1326 -1.66204,-3.62344 -2.99856,-5.53268 l -2.42576,-3.47476 0.0504,-8.40024 c 0.0524,-7.67368 -0.0588,-8.78208 -1.34768,-12.80277 -3.3234,-10.36848 -12.15208,-18.64892 -22.9606,-21.54032 -2.52608,-0.67572 -5.82408,-0.98324 -9.09668,-0.92772 z"
     style="fill:#53fe00;fill-opacity:1" /></g></svg>
